<svg width="231" height="44" viewBox="0 0 231 44" fill="none" xmlns="http://www.w3.org/2000/svg">
<g clip-path="url(#clip0_152_27)">
<path d="M0.0331786 22.7085C-0.00933474 22.4754 0.00114193 22.2775 0.00114193 22.0351V21.971C3.81199 21.6441 7.96343 20.6842 11.0533 18.476C11.9399 18.8822 12.8118 18.8268 13.6482 18.4118C15.4006 20.1818 17.1203 21.4119 19.4145 22.1313C19.6494 22.7298 20.0232 23.1895 20.5358 23.5101C19.9165 25.0492 19.0515 26.4066 17.9409 27.5822C16.2995 26.3998 14.1322 27.2561 13.3919 28.961C8.25832 28.9054 3.08418 26.6594 0.0331786 22.7085ZM13.3598 30.9811C10.7392 32.3345 7.97321 33.0642 5.15879 32.9049C2.98191 31.0783 1.41323 28.6905 0.609815 26.2035C4.14533 29.2422 8.84443 30.9763 13.3598 30.9811ZM19.1583 30.5963C22.1404 29.9743 24.8806 28.7751 27.103 26.941C24.186 34.5462 15.4018 38.0229 8.20216 34.7967C10.5393 34.46 12.7347 33.6528 14.6092 32.5843C16.4825 33.6578 18.712 32.5286 19.1583 30.5963ZM24.6683 22.7726C25.8162 22.6879 26.9356 22.6034 28 22.4199C27.9979 22.7065 27.9683 22.9886 27.968 23.2536C25.9666 25.8148 22.9584 27.5647 19.9591 28.3839C21.0784 27.0251 21.9085 25.5157 22.4899 23.991C23.404 23.8724 24.1506 23.4526 24.6683 22.7726ZM25.1809 20.7205C25.0545 19.77 24.5791 18.9986 23.8354 18.508C24.0704 16.3317 24.1092 14.2083 23.9315 12.1593C26.1752 14.4754 27.5338 17.4318 27.9039 20.3678C27.0923 20.5388 26.1846 20.6563 25.1809 20.7205ZM9.57971 17.0331C6.74975 18.8161 3.43614 19.6823 0.161325 19.9509C0.979159 14.84 4.4604 10.6159 9.1312 8.88871C9.25808 10.5485 9.64243 12.1509 10.2525 13.538C9.27308 14.5326 9.0405 15.8075 9.57971 17.0331ZM15.0898 14.6603C16.5648 12.8289 17.7911 10.9574 18.4855 8.76043C19.6815 9.16661 20.76 9.69031 21.7211 10.3316C22.0567 12.9725 22.1034 15.603 21.8492 18.0591C20.6888 18.2572 19.7767 18.9632 19.3825 19.983C17.6694 19.3629 16.2671 18.208 15.0257 16.9689C15.3375 16.1644 15.3493 15.4104 15.0898 14.6603ZM12.1105 12.7685C11.5144 11.295 11.1254 9.86722 11.1174 8.31154C12.9047 7.90034 14.8343 7.91403 16.5313 8.24742C15.883 10.0624 14.8586 11.7446 13.7763 13.1212C13.3955 12.9585 12.4679 12.5962 12.1105 12.7685Z" fill="#F02D32"/>
</g>
<path d="M42.24 34V10.96H55.888V14.304H45.584V20.8H53.968V24.16H45.584V34H42.24ZM63.0263 34.48C61.7463 34.48 60.6743 34.2453 59.8103 33.776C58.9463 33.296 58.2903 32.6667 57.8423 31.888C57.4049 31.0987 57.1863 30.2347 57.1863 29.296C57.1863 28.4213 57.3409 27.6533 57.6503 26.992C57.9596 26.3307 58.4183 25.7707 59.0263 25.312C59.6343 24.8427 60.3809 24.464 61.2663 24.176C62.0343 23.952 62.9036 23.7547 63.8743 23.584C64.8449 23.4133 65.8636 23.2533 66.9303 23.104C68.0076 22.9547 69.0743 22.8053 70.1303 22.656L68.9143 23.328C68.9356 21.9733 68.6476 20.9707 68.0503 20.32C67.4636 19.6587 66.4503 19.328 65.0103 19.328C64.1036 19.328 63.2716 19.5413 62.5143 19.968C61.7569 20.384 61.2289 21.0773 60.9303 22.048L57.8103 21.088C58.2369 19.6053 59.0476 18.4267 60.2423 17.552C61.4476 16.6773 63.0476 16.24 65.0423 16.24C66.5889 16.24 67.9329 16.5067 69.0743 17.04C70.2263 17.5627 71.0689 18.3947 71.6023 19.536C71.8796 20.1013 72.0503 20.6987 72.1143 21.328C72.1783 21.9573 72.2103 22.6347 72.2103 23.36V34H69.2503V30.048L69.8263 30.56C69.1116 31.8827 68.1996 32.8693 67.0903 33.52C65.9916 34.16 64.6369 34.48 63.0263 34.48ZM63.6183 31.744C64.5676 31.744 65.3836 31.5787 66.0663 31.248C66.7489 30.9067 67.2983 30.4747 67.7143 29.952C68.1303 29.4293 68.4023 28.8853 68.5303 28.32C68.7116 27.808 68.8129 27.232 68.8343 26.592C68.8663 25.952 68.8823 25.44 68.8823 25.056L69.9703 25.456C68.9143 25.616 67.9543 25.76 67.0903 25.888C66.2263 26.016 65.4423 26.144 64.7383 26.272C64.0449 26.3893 63.4263 26.5333 62.8823 26.704C62.4236 26.864 62.0129 27.056 61.6503 27.28C61.2983 27.504 61.0156 27.776 60.8023 28.096C60.5996 28.416 60.4983 28.8053 60.4983 29.264C60.4983 29.712 60.6103 30.128 60.8343 30.512C61.0583 30.8853 61.3996 31.184 61.8583 31.408C62.3169 31.632 62.9036 31.744 63.6183 31.744ZM76.685 13.888V10.64H80.029V13.888H76.685ZM76.685 34V16.72H80.029V34H76.685ZM84.8338 34V16.72H87.8098V20.912L87.3938 20.368C87.6071 19.8133 87.8844 19.3067 88.2258 18.848C88.5671 18.3787 88.9618 17.9947 89.4098 17.696C89.8471 17.376 90.3324 17.1307 90.8658 16.96C91.4098 16.7787 91.9644 16.672 92.5298 16.64C93.0951 16.5973 93.6391 16.624 94.1618 16.72V19.856C93.5964 19.7067 92.9671 19.664 92.2738 19.728C91.5911 19.792 90.9618 20.0107 90.3858 20.384C89.8418 20.736 89.4098 21.1627 89.0898 21.664C88.7804 22.1653 88.5564 22.7253 88.4178 23.344C88.2791 23.952 88.2098 24.5973 88.2098 25.28V34H84.8338ZM103.615 34V10.96H107.007L118.351 28.08V10.96H121.743V34H118.351L107.007 16.864V34H103.615ZM133.873 34.48C132.155 34.48 130.646 34.1067 129.345 33.36C128.054 32.6027 127.046 31.552 126.321 30.208C125.606 28.8533 125.249 27.2853 125.249 25.504C125.249 23.616 125.601 21.9787 126.305 20.592C127.019 19.2053 128.011 18.1333 129.281 17.376C130.55 16.6187 132.027 16.24 133.713 16.24C135.473 16.24 136.971 16.6507 138.209 17.472C139.446 18.2827 140.369 19.44 140.977 20.944C141.595 22.448 141.841 24.2347 141.713 26.304H138.369V25.088C138.347 23.0827 137.963 21.6 137.217 20.64C136.481 19.68 135.355 19.2 133.841 19.2C132.166 19.2 130.907 19.728 130.065 20.784C129.222 21.84 128.801 23.3653 128.801 25.36C128.801 27.2587 129.222 28.7307 130.065 29.776C130.907 30.8107 132.123 31.328 133.713 31.328C134.758 31.328 135.659 31.0933 136.417 30.624C137.185 30.144 137.782 29.4613 138.209 28.576L141.489 29.616C140.817 31.1627 139.798 32.3627 138.433 33.216C137.067 34.0587 135.547 34.48 133.873 34.48ZM127.713 26.304V23.696H140.049V26.304H127.713ZM155.191 34C154.103 34.2133 153.036 34.304 151.991 34.272C150.945 34.24 150.012 34.0373 149.191 33.664C148.369 33.2907 147.751 32.704 147.335 31.904C146.961 31.1893 146.759 30.464 146.727 29.728C146.705 28.9813 146.695 28.1387 146.695 27.2V11.92H150.055V27.04C150.055 27.7333 150.06 28.336 150.071 28.848C150.092 29.36 150.204 29.792 150.407 30.144C150.791 30.8053 151.399 31.184 152.231 31.28C153.073 31.3653 154.06 31.328 155.191 31.168V34ZM143.383 19.408V16.72H155.191V19.408H143.383ZM162.514 34L157.234 16.704L160.546 16.72L164.162 28.576L167.81 16.72H170.69L174.338 28.576L177.954 16.72H181.25L175.97 34H173.282L169.25 21.488L165.202 34H162.514ZM190.994 34.48C189.266 34.48 187.767 34.0907 186.498 33.312C185.229 32.5333 184.247 31.4613 183.554 30.096C182.871 28.72 182.53 27.136 182.53 25.344C182.53 23.5413 182.882 21.9573 183.586 20.592C184.29 19.216 185.277 18.1493 186.546 17.392C187.815 16.624 189.298 16.24 190.994 16.24C192.722 16.24 194.221 16.6293 195.49 17.408C196.759 18.1867 197.741 19.2587 198.434 20.624C199.127 21.9893 199.474 23.5627 199.474 25.344C199.474 27.1467 199.122 28.736 198.418 30.112C197.725 31.4773 196.743 32.5493 195.474 33.328C194.205 34.096 192.711 34.48 190.994 34.48ZM190.994 31.328C192.647 31.328 193.879 30.7733 194.69 29.664C195.511 28.544 195.922 27.104 195.922 25.344C195.922 23.5413 195.506 22.1013 194.674 21.024C193.853 19.936 192.626 19.392 190.994 19.392C189.874 19.392 188.951 19.648 188.226 20.16C187.501 20.6613 186.962 21.36 186.61 22.256C186.258 23.1413 186.082 24.1707 186.082 25.344C186.082 27.1573 186.498 28.608 187.33 29.696C188.162 30.784 189.383 31.328 190.994 31.328ZM202.99 34V16.72H205.966V20.912L205.55 20.368C205.763 19.8133 206.041 19.3067 206.382 18.848C206.723 18.3787 207.118 17.9947 207.566 17.696C208.003 17.376 208.489 17.1307 209.022 16.96C209.566 16.7787 210.121 16.672 210.686 16.64C211.251 16.5973 211.795 16.624 212.318 16.72V19.856C211.753 19.7067 211.123 19.664 210.43 19.728C209.747 19.792 209.118 20.0107 208.542 20.384C207.998 20.736 207.566 21.1627 207.246 21.664C206.937 22.1653 206.713 22.7253 206.574 23.344C206.435 23.952 206.366 24.5973 206.366 25.28V34H202.99ZM215.349 34L215.365 10.96H218.757V25.04L225.541 16.72H229.797L222.629 25.36L230.533 34H225.989L218.757 25.68V34H215.349Z" fill="#FAFAFA"/>
<defs>
<clipPath id="clip0_152_27">
<rect width="28" height="28" fill="white" transform="translate(0 8)"/>
</clipPath>
</defs>
</svg>
