<svg width="23" height="23" viewBox="0 0 23 23" fill="none" xmlns="http://www.w3.org/2000/svg">
<path d="M0.0271777 12.0802C-0.0076464 11.8893 0.000935389 11.7272 0.000935389 11.5287V11.4761C3.12253 11.2083 6.52311 10.422 9.05415 8.61324C9.78037 8.94598 10.4946 8.90059 11.1797 8.56072C12.6151 10.0105 14.0238 11.0182 15.9031 11.6074C16.0955 12.0977 16.4017 12.4742 16.8216 12.7369C16.3142 13.9976 15.6057 15.1095 14.696 16.0725C13.3515 15.104 11.5762 15.8053 10.9698 17.2019C6.76466 17.1563 2.52635 15.3166 0.0271777 12.0802ZM10.9435 18.8566C8.79685 19.9652 6.53112 20.5629 4.22574 20.4325C2.44258 18.9362 1.15762 16.9803 0.49952 14.9431C3.39558 17.4322 7.24477 18.8527 10.9435 18.8566ZM15.6932 18.5414C18.136 18.0319 20.3805 17.0496 22.2009 15.5472C19.8116 21.7769 12.6161 24.6248 6.71866 21.9821C8.63306 21.7063 10.4314 21.0451 11.9669 20.1699C13.5014 21.0492 15.3276 20.1242 15.6932 18.5414ZM20.2066 12.1327C21.1469 12.0633 22.0638 11.9942 22.9357 11.8438C22.934 12.0786 22.9098 12.3097 22.9095 12.5267C21.2701 14.6247 18.806 16.0581 16.3492 16.7291C17.266 15.6161 17.946 14.3797 18.4222 13.1308C19.171 13.0337 19.7826 12.6897 20.2066 12.1327ZM20.6265 10.4518C20.523 9.67323 20.1336 9.04132 19.5244 8.6395C19.7169 6.85684 19.7486 5.11743 19.6031 3.43903C21.441 5.33628 22.5539 7.75791 22.857 10.1629C22.1922 10.303 21.4487 10.3993 20.6265 10.4518ZM7.84706 7.4313C5.52894 8.89187 2.81465 9.60137 0.132147 9.82144C0.802061 5.63486 3.65366 2.1748 7.47967 0.760008C7.5836 2.1196 7.89843 3.43221 8.39813 4.56843C7.59589 5.38307 7.40537 6.42745 7.84706 7.4313ZM12.3605 5.48769C13.5688 3.98752 14.5732 2.45454 15.1421 0.654924C16.1218 0.987645 17.0052 1.41662 17.7924 1.94192C18.0674 4.1052 18.1056 6.2599 17.8974 8.2718C16.9469 8.43402 16.1997 9.01232 15.8768 9.84768C14.4736 9.33973 13.325 8.39378 12.308 7.37876C12.5634 6.7198 12.5731 6.10212 12.3605 5.48769ZM9.9201 3.93806C9.43186 2.7311 9.11319 1.56154 9.10661 0.287226C10.5707 -0.0496044 12.1513 -0.038385 13.5414 0.234703C13.0103 1.72144 12.1712 3.09938 11.2846 4.22697C10.9727 4.09374 10.2129 3.79695 9.9201 3.93806Z" fill="#F02D32"/>
</svg>
