<svg width="200" height="38" viewBox="0 0 200 38" fill="none" xmlns="http://www.w3.org/2000/svg">
<g clip-path="url(#clip0_150_311)">
<path d="M0.0271777 19.5803C-0.00764639 19.3894 0.000935389 19.2273 0.000935389 19.0287V18.9762C3.12253 18.7084 6.52311 17.9221 9.05415 16.1133C9.78037 16.446 10.4946 16.4006 11.1797 16.0608C12.6151 17.5106 14.0238 18.5182 15.9031 19.1075C16.0955 19.5978 16.4017 19.9743 16.8216 20.2369C16.3142 21.4976 15.6057 22.6095 14.696 23.5726C13.3515 22.604 11.5762 23.3054 10.9698 24.702C6.76466 24.6564 2.52635 22.8166 0.0271777 19.5803ZM10.9435 26.3566C8.79685 27.4653 6.53112 28.063 4.22574 27.9325C2.44258 26.4363 1.15762 24.4804 0.49952 22.4432C3.39558 24.9323 7.24477 26.3527 10.9435 26.3566ZM15.6932 26.0415C18.136 25.5319 20.3805 24.5497 22.2009 23.0473C19.8116 29.277 12.6161 32.1248 6.71866 29.4822C8.63307 29.2064 10.4314 28.5452 11.9669 27.6699C13.5014 28.5492 15.3276 27.6243 15.6932 26.0415ZM20.2066 19.6328C21.1469 19.5634 22.0638 19.4942 22.9357 19.3439C22.934 19.5787 22.9098 19.8098 22.9095 20.0268C21.2701 22.1248 18.806 23.5582 16.3492 24.2292C17.266 23.1162 17.946 21.8797 18.4222 20.6309C19.171 20.5337 19.7826 20.1898 20.2066 19.6328ZM20.6265 17.9518C20.523 17.1733 20.1336 16.5414 19.5244 16.1396C19.7169 14.3569 19.7486 12.6175 19.6031 10.9391C21.441 12.8363 22.5539 15.258 22.857 17.6629C22.1922 17.803 21.4487 17.8993 20.6265 17.9518ZM7.84706 14.9314C5.52894 16.3919 2.81465 17.1014 0.132147 17.3215C0.802061 13.1349 3.65366 9.67486 7.47967 8.26007C7.5836 9.61966 7.89843 10.9323 8.39813 12.0685C7.59589 12.8831 7.40537 13.9275 7.84706 14.9314ZM12.3605 12.9878C13.5688 11.4876 14.5732 9.9546 15.1421 8.15498C16.1218 8.48771 17.0052 8.91668 17.7924 9.44199C18.0674 11.6053 18.1056 13.76 17.8974 15.7719C16.9469 15.9341 16.1997 16.5124 15.8768 17.3477C14.4736 16.8398 13.325 15.8938 12.308 14.8788C12.5634 14.2199 12.5731 13.6022 12.3605 12.9878ZM9.9201 11.4381C9.43186 10.2312 9.11319 9.0616 9.10661 7.78729C10.5707 7.45046 12.1513 7.46168 13.5414 7.73476C13.0103 9.2215 12.1712 10.5994 11.2846 11.727C10.9727 11.5938 10.2129 11.297 9.9201 11.4381Z" fill="#F02D32"/>
</g>
<path d="M34.7253 30V9.84H46.6673V12.766H37.6513V18.45H44.9873V21.39H37.6513V30H34.7253ZM52.9133 30.42C51.7933 30.42 50.8553 30.2147 50.0993 29.804C49.3433 29.384 48.7693 28.8333 48.3773 28.152C47.9946 27.4613 47.8033 26.7053 47.8033 25.884C47.8033 25.1187 47.9386 24.4467 48.2093 23.868C48.48 23.2893 48.8813 22.7993 49.4133 22.398C49.9453 21.9873 50.5986 21.656 51.3733 21.404C52.0453 21.208 52.806 21.0353 53.6553 20.886C54.5046 20.7367 55.396 20.5967 56.3293 20.466C57.272 20.3353 58.2053 20.2047 59.1293 20.074L58.0653 20.662C58.084 19.4767 57.832 18.5993 57.3093 18.03C56.796 17.4513 55.9093 17.162 54.6493 17.162C53.856 17.162 53.128 17.3487 52.4653 17.722C51.8026 18.086 51.3406 18.6927 51.0793 19.542L48.3493 18.702C48.7226 17.4047 49.432 16.3733 50.4773 15.608C51.532 14.8427 52.932 14.46 54.6773 14.46C56.0306 14.46 57.2066 14.6933 58.2053 15.16C59.2133 15.6173 59.9506 16.3453 60.4173 17.344C60.66 17.8387 60.8093 18.3613 60.8653 18.912C60.9213 19.4627 60.9493 20.0553 60.9493 20.69V30H58.3593V26.542L58.8633 26.99C58.238 28.1473 57.44 29.0107 56.4693 29.58C55.508 30.14 54.3226 30.42 52.9133 30.42ZM53.4313 28.026C54.262 28.026 54.976 27.8813 55.5733 27.592C56.1706 27.2933 56.6513 26.9153 57.0153 26.458C57.3793 26.0007 57.6173 25.5247 57.7293 25.03C57.888 24.582 57.9766 24.078 57.9953 23.518C58.0233 22.958 58.0373 22.51 58.0373 22.174L58.9893 22.524C58.0653 22.664 57.2253 22.79 56.4693 22.902C55.7133 23.014 55.0273 23.126 54.4113 23.238C53.8046 23.3407 53.2633 23.4667 52.7873 23.616C52.386 23.756 52.0266 23.924 51.7093 24.12C51.4013 24.316 51.154 24.554 50.9673 24.834C50.79 25.114 50.7013 25.4547 50.7013 25.856C50.7013 26.248 50.7993 26.612 50.9953 26.948C51.1913 27.2747 51.49 27.536 51.8913 27.732C52.2926 27.928 52.806 28.026 53.4313 28.026ZM64.8647 12.402V9.56H67.7907V12.402H64.8647ZM64.8647 30V14.88H67.7907V30H64.8647ZM71.9949 30V14.88H74.5989V18.548L74.2349 18.072C74.4215 17.5867 74.6642 17.1433 74.9629 16.742C75.2615 16.3313 75.6069 15.9953 75.9989 15.734C76.3815 15.454 76.8062 15.2393 77.2729 15.09C77.7489 14.9313 78.2342 14.838 78.7289 14.81C79.2235 14.7727 79.6995 14.796 80.1569 14.88V17.624C79.6622 17.4933 79.1115 17.456 78.5049 17.512C77.9075 17.568 77.3569 17.7593 76.8529 18.086C76.3769 18.394 75.9989 18.7673 75.7189 19.206C75.4482 19.6447 75.2522 20.1347 75.1309 20.676C75.0095 21.208 74.9489 21.7727 74.9489 22.37V30H71.9949ZM88.4284 30V9.84H91.3964L101.322 24.82V9.84H104.29V30H101.322L91.3964 15.006V30H88.4284ZM114.904 30.42C113.401 30.42 112.081 30.0933 110.942 29.44C109.813 28.7773 108.931 27.858 108.296 26.682C107.671 25.4967 107.358 24.1247 107.358 22.566C107.358 20.914 107.666 19.4813 108.282 18.268C108.907 17.0547 109.775 16.1167 110.886 15.454C111.997 14.7913 113.289 14.46 114.764 14.46C116.304 14.46 117.615 14.8193 118.698 15.538C119.781 16.2473 120.588 17.26 121.12 18.576C121.661 19.892 121.876 21.4553 121.764 23.266H118.838V22.202C118.819 20.4473 118.483 19.15 117.83 18.31C117.186 17.47 116.201 17.05 114.876 17.05C113.411 17.05 112.309 17.512 111.572 18.436C110.835 19.36 110.466 20.6947 110.466 22.44C110.466 24.1013 110.835 25.3893 111.572 26.304C112.309 27.2093 113.373 27.662 114.764 27.662C115.679 27.662 116.467 27.4567 117.13 27.046C117.802 26.626 118.325 26.0287 118.698 25.254L121.568 26.164C120.98 27.5173 120.089 28.5673 118.894 29.314C117.699 30.0513 116.369 30.42 114.904 30.42ZM109.514 23.266V20.984H120.308V23.266H109.514ZM133.557 30C132.605 30.1867 131.672 30.266 130.757 30.238C129.842 30.21 129.026 30.0327 128.307 29.706C127.588 29.3793 127.047 28.866 126.683 28.166C126.356 27.5407 126.179 26.906 126.151 26.262C126.132 25.6087 126.123 24.8713 126.123 24.05V10.68H129.063V23.91C129.063 24.5167 129.068 25.044 129.077 25.492C129.096 25.94 129.194 26.318 129.371 26.626C129.707 27.2047 130.239 27.536 130.967 27.62C131.704 27.6947 132.568 27.662 133.557 27.522V30ZM123.225 17.232V14.88H133.557V17.232H123.225ZM139.965 30L135.345 14.866L138.243 14.88L141.407 25.254L144.599 14.88H147.119L150.311 25.254L153.475 14.88H156.359L151.739 30H149.387L145.859 19.052L142.317 30H139.965ZM164.885 30.42C163.373 30.42 162.062 30.0793 160.951 29.398C159.84 28.7167 158.982 27.7787 158.375 26.584C157.778 25.38 157.479 23.994 157.479 22.426C157.479 20.8487 157.787 19.4627 158.403 18.268C159.019 17.064 159.882 16.1307 160.993 15.468C162.104 14.796 163.401 14.46 164.885 14.46C166.397 14.46 167.708 14.8007 168.819 15.482C169.93 16.1633 170.788 17.1013 171.395 18.296C172.002 19.4907 172.305 20.8673 172.305 22.426C172.305 24.0033 171.997 25.394 171.381 26.598C170.774 27.7927 169.916 28.7307 168.805 29.412C167.694 30.084 166.388 30.42 164.885 30.42ZM164.885 27.662C166.332 27.662 167.41 27.1767 168.119 26.206C168.838 25.226 169.197 23.966 169.197 22.426C169.197 20.8487 168.833 19.5887 168.105 18.646C167.386 17.694 166.313 17.218 164.885 17.218C163.905 17.218 163.098 17.442 162.463 17.89C161.828 18.3287 161.357 18.94 161.049 19.724C160.741 20.4987 160.587 21.3993 160.587 22.426C160.587 24.0127 160.951 25.282 161.679 26.234C162.407 27.186 163.476 27.662 164.885 27.662ZM175.382 30V14.88H177.986V18.548L177.622 18.072C177.808 17.5867 178.051 17.1433 178.35 16.742C178.648 16.3313 178.994 15.9953 179.386 15.734C179.768 15.454 180.193 15.2393 180.66 15.09C181.136 14.9313 181.621 14.838 182.116 14.81C182.61 14.7727 183.086 14.796 183.544 14.88V17.624C183.049 17.4933 182.498 17.456 181.892 17.512C181.294 17.568 180.744 17.7593 180.24 18.086C179.764 18.394 179.386 18.7673 179.106 19.206C178.835 19.6447 178.639 20.1347 178.518 20.676C178.396 21.208 178.336 21.7727 178.336 22.37V30H175.382ZM186.196 30L186.21 9.84H189.178V22.16L195.114 14.88H198.838L192.566 22.44L199.482 30H195.506L189.178 22.72V30H186.196Z" fill="#292929"/>
<defs>
<clipPath id="clip0_150_311">
<rect width="22.9357" height="22.9357" fill="white" transform="translate(0 7.5321)"/>
</clipPath>
</defs>
</svg>
