<svg width="24" height="24" viewBox="0 0 24 24" fill="none" xmlns="http://www.w3.org/2000/svg">
<path d="M3.18502 10.8023H16.6991L8.61051 3.97086C8.48116 3.86074 8.55969 3.65625 8.73061 3.65625H10.7747C10.8648 3.65625 10.9502 3.68771 11.0172 3.74389L19.7456 11.1124C19.8255 11.1798 19.8896 11.2632 19.9336 11.3568C19.9775 11.4505 20.0002 11.5522 20.0002 11.6551C20.0002 11.7581 19.9775 11.8598 19.9336 11.9534C19.8896 12.0471 19.8255 12.1304 19.7456 12.1978L10.9664 19.6113C10.9318 19.6405 10.8902 19.6562 10.8463 19.6562H8.73292C8.562 19.6562 8.48347 19.4495 8.61281 19.3416L16.6991 12.5102H3.18502C3.08339 12.5102 3.00024 12.4293 3.00024 12.3304V10.9821C3.00024 10.8832 3.08339 10.8023 3.18502 10.8023Z" fill="#292929"/>
</svg>
