<svg width="24" height="24" viewBox="0 0 24 24" fill="none" xmlns="http://www.w3.org/2000/svg">
<path d="M20.815 10.8023H7.30093L15.3895 3.97086C15.5188 3.86074 15.4403 3.65625 15.2694 3.65625H13.2253C13.1352 3.65625 13.0498 3.68771 12.9828 3.74389L4.25443 11.1124C4.17449 11.1798 4.11038 11.2632 4.06644 11.3568C4.0225 11.4505 3.99976 11.5522 3.99976 11.6551C3.99976 11.7581 4.0225 11.8598 4.06644 11.9534C4.11038 12.0471 4.17449 12.1304 4.25443 12.1978L13.0336 19.6113C13.0682 19.6405 13.1098 19.6562 13.1537 19.6562H15.2671C15.438 19.6562 15.5165 19.4495 15.3872 19.3416L7.30093 12.5102H20.815C20.9166 12.5102 20.9998 12.4293 20.9998 12.3304V10.9821C20.9998 10.8832 20.9166 10.8023 20.815 10.8023Z" fill="#292929"/>
</svg>
